<svg width="57" height="74" viewBox="0 0 57 74" fill="none" xmlns="http://www.w3.org/2000/svg">
<path d="M51.5131 61.717V63.467C51.4069 64.0071 51.2029 64.5219 50.9068 64.9666C50.1738 66.0748 49.2154 66.4242 48.1788 66.5307H21.5918L38.2075 41.6921C38.9861 42.8264 39.7657 43.9598 40.5443 45.0941C42.1761 47.4682 43.8078 49.8434 45.4387 52.2185C46.8674 54.2974 48.297 56.3772 49.7248 58.458C50.3889 59.4222 51.1945 60.3715 51.4814 61.574C51.4926 61.6217 51.5028 61.6693 51.5131 61.717Z" fill="white"/>
<path d="M35.2887 5.60209L18.646 30.4818C17.8665 29.3475 17.0878 28.2132 16.3083 27.0808C14.6765 24.7057 13.0457 22.3306 11.4139 19.9564C9.98612 17.8766 8.55646 15.7967 7.12774 13.7159C6.4646 12.7517 5.65896 11.8024 5.37117 10.6008C5.09735 9.44878 5.30877 8.16873 5.94583 7.20729C7.1147 5.44325 8.85078 5.60209 10.571 5.60209H35.2887Z" fill="white"/>
<path d="M52.1876 12.8808C52.1876 15.8212 50.3416 18.2617 48.7722 20.4378C46.5472 23.522 44.4842 26.7483 42.3635 29.9195C37.9041 36.586 33.4446 43.2526 28.9843 49.9182C25.6463 54.9085 22.3073 59.8988 18.9692 64.8891C18.6032 65.4367 18.2372 65.9833 17.8712 66.5308H11.0041C8.4112 66.3841 6.21037 64.5911 5.24453 62.0768C4.90644 61.1966 4.71924 60.2286 4.71924 59.2111C4.71924 56.2894 6.52051 54.1227 8.00046 51.9139C9.08086 50.3012 10.1585 48.6876 11.2379 47.074C13.6325 43.4936 16.028 39.9141 18.4225 36.3337C19.1201 35.2901 19.8187 34.2464 20.5163 33.2028L38.9779 5.60132H45.9716C48.409 5.75268 50.4925 7.36816 51.5133 9.66571C51.9445 10.6356 52.1876 11.7259 52.1876 12.8808Z" fill="#04BFAC"/>
</svg>
