<svg width="1512" height="1588" viewBox="0 0 1512 1588" fill="none" xmlns="http://www.w3.org/2000/svg">
<ellipse cx="231" cy="204.5" rx="492" ry="493.5" fill="#F4F7FF"/>
<path d="M-548.011 -294.29C-422.314 -492.094 -226.606 -634.731 -0.315125 -693.466C225.976 -752.201 466.034 -722.669 671.498 -610.819C876.962 -498.969 1032.56 -313.113 1106.95 -90.694C1181.34 131.725 1168.99 374.179 1072.4 587.824C975.796 801.468 802.125 970.426 586.369 1060.66C370.613 1150.89 128.805 1155.7 -90.3388 1074.11C-309.483 992.512 -489.679 830.585 -594.625 620.945C-699.571 411.304 -721.467 169.531 -655.904 -55.669L-442.164 7.03064C-491.927 177.958 -475.307 361.465 -395.653 520.583C-315.998 679.701 -179.229 802.605 -12.8975 864.534C153.434 926.464 336.967 922.818 500.726 854.329C664.486 785.841 796.303 657.601 869.622 495.444C942.942 333.287 952.314 149.264 895.852 -19.5535C839.389 -188.371 721.288 -329.436 565.34 -414.33C409.392 -499.225 227.187 -521.64 55.4308 -477.06C-116.325 -432.48 -264.868 -324.218 -360.273 -174.084L-548.011 -294.29Z" fill="#F4F7FF"/>
<path d="M-918.243 -534.904C-731.194 -829.318 -439.962 -1041.62 -103.219 -1129.04C233.524 -1216.46 590.754 -1172.51 896.503 -1006.03C1202.25 -839.55 1433.8 -562.921 1544.5 -231.87C1655.2 99.1813 1636.82 460.052 1493.08 778.043C1349.33 1096.03 1090.89 1347.51 769.822 1481.82C448.757 1616.12 88.9248 1623.27 -237.183 1501.83C-563.29 1380.39 -831.439 1139.37 -987.608 827.34C-1143.78 515.31 -1176.36 155.452 -1078.8 -179.738L-861.017 -115.84C-942.482 164.04 -915.275 464.518 -784.875 725.06C-654.475 985.602 -430.574 1186.85 -158.278 1288.25C114.019 1389.66 414.475 1383.69 682.561 1271.54C950.647 1159.4 1166.44 949.416 1286.47 683.897C1406.5 418.378 1421.84 117.055 1329.41 -159.369C1236.98 -435.793 1043.64 -666.776 788.338 -805.783C533.041 -944.791 234.758 -981.494 -46.4192 -908.498C-327.596 -835.502 -570.771 -658.232 -726.956 -412.399L-918.243 -534.904Z" fill="#F4F7FF"/>
</svg>
